<svg width="112" height="16" viewBox="0 0 112 16" fill="none" xmlns="http://www.w3.org/2000/svg">
<path fill-rule="evenodd" clip-rule="evenodd" d="M11.7077 14.0004C11.6024 14.0004 11.4964 13.9758 11.3991 13.9251L7.99975 12.1491L4.60108 13.9251C4.37575 14.0418 4.10375 14.0218 3.89975 13.8724C3.69442 13.7231 3.59242 13.4704 3.63575 13.2204L4.28308 9.46844L1.53642 6.81177C1.35375 6.6351 1.28775 6.36977 1.36575 6.1271C1.44375 5.88577 1.65242 5.7091 1.90442 5.6731L5.70442 5.1211L7.40308 1.70377C7.62842 1.25044 8.37175 1.25044 8.59708 1.70377L10.2957 5.1211L14.0957 5.6731C14.3477 5.7091 14.5564 5.88577 14.6344 6.1271C14.7124 6.36977 14.6464 6.6351 14.4637 6.81177L11.7171 9.46844L12.3644 13.2204C12.4077 13.4704 12.3051 13.7231 12.1004 13.8724C11.9844 13.9578 11.8464 14.0004 11.7077 14.0004Z" fill="white"/>
<path fill-rule="evenodd" clip-rule="evenodd" d="M35.7077 14.0004C35.6024 14.0004 35.4964 13.9758 35.3991 13.9251L31.9997 12.1491L28.6011 13.9251C28.3757 14.0418 28.1037 14.0218 27.8997 13.8724C27.6944 13.7231 27.5924 13.4704 27.6357 13.2204L28.2831 9.46844L25.5364 6.81177C25.3537 6.6351 25.2877 6.36977 25.3657 6.1271C25.4437 5.88577 25.6524 5.7091 25.9044 5.6731L29.7044 5.1211L31.4031 1.70377C31.6284 1.25044 32.3717 1.25044 32.5971 1.70377L34.2957 5.1211L38.0957 5.6731C38.3477 5.7091 38.5564 5.88577 38.6344 6.1271C38.7124 6.36977 38.6464 6.6351 38.4637 6.81177L35.7171 9.46844L36.3644 13.2204C36.4077 13.4704 36.3051 13.7231 36.1004 13.8724C35.9844 13.9578 35.8464 14.0004 35.7077 14.0004Z" fill="white"/>
<path fill-rule="evenodd" clip-rule="evenodd" d="M59.7077 14.0004C59.6024 14.0004 59.4964 13.9758 59.3991 13.9251L55.9997 12.1491L52.6011 13.9251C52.3757 14.0418 52.1037 14.0218 51.8997 13.8724C51.6944 13.7231 51.5924 13.4704 51.6357 13.2204L52.2831 9.46844L49.5364 6.81177C49.3537 6.6351 49.2877 6.36977 49.3657 6.1271C49.4437 5.88577 49.6524 5.7091 49.9044 5.6731L53.7044 5.1211L55.4031 1.70377C55.6284 1.25044 56.3717 1.25044 56.5971 1.70377L58.2957 5.1211L62.0957 5.6731C62.3477 5.7091 62.5564 5.88577 62.6344 6.1271C62.7124 6.36977 62.6464 6.6351 62.4637 6.81177L59.7171 9.46844L60.3644 13.2204C60.4077 13.4704 60.3051 13.7231 60.1004 13.8724C59.9844 13.9578 59.8464 14.0004 59.7077 14.0004Z" fill="white"/>
<path fill-rule="evenodd" clip-rule="evenodd" d="M83.7077 14.0004C83.6024 14.0004 83.4964 13.9758 83.3991 13.9251L79.9997 12.1491L76.6011 13.9251C76.3757 14.0418 76.1037 14.0218 75.8997 13.8724C75.6944 13.7231 75.5924 13.4704 75.6357 13.2204L76.2831 9.46844L73.5364 6.81177C73.3537 6.6351 73.2877 6.36977 73.3657 6.1271C73.4437 5.88577 73.6524 5.7091 73.9044 5.6731L77.7044 5.1211L79.4031 1.70377C79.6284 1.25044 80.3717 1.25044 80.5971 1.70377L82.2957 5.1211L86.0957 5.6731C86.3477 5.7091 86.5564 5.88577 86.6344 6.1271C86.7124 6.36977 86.6464 6.6351 86.4637 6.81177L83.7171 9.46844L84.3644 13.2204C84.4077 13.4704 84.3051 13.7231 84.1004 13.8724C83.9844 13.9578 83.8464 14.0004 83.7077 14.0004Z" fill="white"/>
<path opacity="0.34" fill-rule="evenodd" clip-rule="evenodd" d="M107.708 14.0004C107.602 14.0004 107.496 13.9758 107.399 13.9251L104 12.1491L100.601 13.9251C100.376 14.0418 100.104 14.0218 99.8997 13.8724C99.6944 13.7231 99.5924 13.4704 99.6357 13.2204L100.283 9.46844L97.5364 6.81177C97.3537 6.6351 97.2877 6.36977 97.3657 6.1271C97.4437 5.88577 97.6524 5.7091 97.9044 5.6731L101.704 5.1211L103.403 1.70377C103.628 1.25044 104.372 1.25044 104.597 1.70377L106.296 5.1211L110.096 5.6731C110.348 5.7091 110.556 5.88577 110.634 6.1271C110.712 6.36977 110.646 6.6351 110.464 6.81177L107.717 9.46844L108.364 13.2204C108.408 13.4704 108.305 13.7231 108.1 13.8724C107.984 13.9578 107.846 14.0004 107.708 14.0004Z" fill="white"/>
</svg>
